<svg xmlns="http://www.w3.org/2000/svg" viewBox="0 0 400 300"><g id="_393_credit_card_flatline" data-name="#393_credit_card_flatline"><path d="M176,72.69a14,14,0,0,1,12.71,0L347.8,164.51c3.52,2,3.54,5.33,0,7.37l-95.4,55.43a14,14,0,0,1-12.7,0l-159-91.83c-3.52-2-3.54-5.32,0-7.35Z" fill="#ef6655"/><path d="M246.11,229.75a13.83,13.83,0,0,1-6.82-1.66l-159-91.82c-2-1.16-3.1-2.75-3.11-4.48s1.09-3.3,3.07-4.44l95.39-55.44h0a14.8,14.8,0,0,1,13.61,0l159.05,91.83c2,1.15,3.1,2.74,3.11,4.48s-1.09,3.3-3.07,4.45L252.9,228.09A13.72,13.72,0,0,1,246.11,229.75ZM176.5,73.47,81.1,128.91c-1.39.81-2.16,1.83-2.16,2.88s.78,2.09,2.2,2.91l159.05,91.83a13,13,0,0,0,11.8,0l95.39-55.43c1.4-.82,2.17-1.84,2.17-2.89s-.79-2.1-2.21-2.92l-159-91.82a13,13,0,0,0-11.8,0Z" fill="#231f20"/><path d="M147.55,72.69a14,14,0,0,1,12.71,0l159.05,91.82c3.52,2,3.54,5.33,0,7.37L224,227.31a14,14,0,0,1-12.71,0l-159-91.83c-3.52-2-3.54-5.32,0-7.35Z" fill="#fff"/><path d="M217.62,229.46a13.76,13.76,0,0,1-6.69-1.6L51.88,136c-1.91-1.1-3-2.61-3-4.24s1-3.11,2.92-4.21l95.39-55.44a14.74,14.74,0,0,1,13.35,0l159,91.82c1.92,1.11,3,2.61,3,4.25s-1,3.12-2.93,4.21l-95.4,55.44A13.57,13.57,0,0,1,217.62,229.46ZM147.55,72.69l.32.55L52.48,128.67c-1.48.87-2.3,2-2.3,3.12s.83,2.28,2.34,3.14l159,91.83a13.33,13.33,0,0,0,12.08,0L319,171.33c1.48-.86,2.3-2,2.3-3.12s-.83-2.28-2.34-3.15l-159-91.83a13.34,13.34,0,0,0-12.07,0Z" fill="#231f20"/><path d="M138.73,128.77a10,10,0,0,1-4.86-1.17l-14.19-8.19a3.94,3.94,0,0,1-2.22-3,3.56,3.56,0,0,1,1.63-3l.56-.33,11.25-6.51a10.78,10.78,0,0,1,9.21.27L154.3,115a3.91,3.91,0,0,1,2.22,3.07,3.52,3.52,0,0,1-1.67,3l-11.8,6.83A10.28,10.28,0,0,1,138.73,128.77Zm-3.5-21.85a8.86,8.86,0,0,0-3.75.77l-.45.24-11.22,6.52a2.27,2.27,0,0,0-1,1.83,2.7,2.7,0,0,0,1.57,2l14.18,8.19a9.52,9.52,0,0,0,7.94.25l.92-.51,9.83-5.71h0l.92-.54a2.22,2.22,0,0,0,1.08-1.84,2.69,2.69,0,0,0-1.57-2l-14.19-8.19A8.66,8.66,0,0,0,135.23,106.92Z" fill="#d1d3d4"/><path d="M143.21,127.7a.68.68,0,0,1-.33-.09l-23.23-13.45a.67.67,0,0,1-.24-.9.66.66,0,0,1,.9-.24l23.23,13.46a.65.65,0,0,1,.24.89A.65.65,0,0,1,143.21,127.7Z" fill="#d1d3d4"/><path d="M123.18,121.36a.68.68,0,0,1-.57-.33.65.65,0,0,1,.25-.89l19.9-11.45a.67.67,0,0,1,.9.24.66.66,0,0,1-.25.9l-19.9,11.44A.63.63,0,0,1,123.18,121.36Z" fill="#d1d3d4"/><path d="M131,125.85a.66.66,0,0,1-.33-1.22L150.25,113a.66.66,0,0,1,.9.23.65.65,0,0,1-.23.9l-19.57,11.61A.69.69,0,0,1,131,125.85Z" fill="#d1d3d4"/><path d="M154,121.36a.8.8,0,0,1-.33-.08l-23.28-13.36a.67.67,0,0,1-.24-.9.66.66,0,0,1,.9-.24l23.28,13.35a.67.67,0,0,1,.24.9A.65.65,0,0,1,154,121.36Z" fill="#d1d3d4"/><path d="M150.58,123.19a.79.79,0,0,1-.32-.08l-7.84-4.41a.66.66,0,0,1,.65-1.15l7.84,4.41a.66.66,0,0,1-.33,1.23Z" fill="#d1d3d4"/><path d="M146.66,125.71a.68.68,0,0,1-.33-.09l-7.78-4.55a.66.66,0,0,1-.23-.9.65.65,0,0,1,.9-.23l7.78,4.55a.66.66,0,0,1-.34,1.22Z" fill="#d1d3d4"/><path d="M130.72,116.55a.66.66,0,0,1-.33-.09l-7.29-4.32a.66.66,0,0,1,.67-1.13l7.29,4.32a.66.66,0,0,1-.34,1.22Z" fill="#d1d3d4"/><path d="M134.69,114.25a.61.61,0,0,1-.34-.1l-7.26-4.33a.65.65,0,0,1-.22-.9.66.66,0,0,1,.9-.23L135,113a.67.67,0,0,1-.34,1.23Z" fill="#d1d3d4"/><polygon points="312.2 175.88 299.97 182.98 128.32 83.88 140.55 76.77 312.2 175.88" fill="#231f20"/><path d="M127,131.91c1.79,1,1.8,2.7,0,3.73l-.88.52a7.15,7.15,0,0,1-6.45,0l-16.09-9.29c-1.78-1-1.79-2.71,0-3.74l.89-.51a7.1,7.1,0,0,1,6.44,0Z" fill="#fff"/><path d="M134.79,140.14l-.89.52c-1.76,1-1.75,2.7,0,3.73L150,153.68a7.1,7.1,0,0,0,6.44,0l.88-.51c1.78-1,1.77-2.7,0-3.74l-16.09-9.29a7.13,7.13,0,0,0-6.44,0M195.5,175.2l-.88.51c-1.77,1-1.77,2.7,0,3.73l16.09,9.29a7.1,7.1,0,0,0,6.44,0l.88-.51c1.78-1,1.76-2.71,0-3.73l-16.09-9.29a7,7,0,0,0-6.44,0m-91.95-52.07c-1.77,1-1.76,2.71,0,3.74l16.09,9.29a7.15,7.15,0,0,0,6.45,0l.88-.52c1.78-1,1.77-2.7,0-3.73l-16.09-9.29a7.1,7.1,0,0,0-6.44,0l-.89.51m61.6,34.54-.89.52c-1.76,1-1.76,2.7,0,3.73l16.08,9.28a7.09,7.09,0,0,0,6.45,0l.88-.52c1.78-1,1.76-2.7,0-3.73l-16.08-9.29a7.1,7.1,0,0,0-6.44,0m-33.73,1.8a1.44,1.44,0,0,0,1.28,0,.4.4,0,0,0,0-.75L87.36,132.55a1.41,1.41,0,0,0-1.28,0c-.35.2-.35.53,0,.74l45.34,26.18m16.31,14.4a1.41,1.41,0,0,0,.86.13l12.82-1.81c.48-.07.77-.36.65-.64a.55.55,0,0,0-.24-.24,1.43,1.43,0,0,0-.85-.14L148.15,173c-.48.07-.78.35-.66.63a.57.57,0,0,0,.24.25m17.34,5a1.38,1.38,0,0,0,1.28,0c.35-.2.35-.53,0-.74l-7-4a1.41,1.41,0,0,0-1.28,0c-.35.2-.35.53,0,.74l7,4M144.78,165.7a1.41,1.41,0,0,0-1.28,0c-.35.21-.35.54,0,.74l7,4a1.41,1.41,0,0,0,1.28,0,.4.4,0,0,0,0-.75l-7-4" fill="#ef6655"/></g></svg>